nColumns=19
nRows=109
DataType=double
version=3
OpenSimVersion=4.1
endheader
time	ground_force_1_vx	ground_force_1_vy	ground_force_1_vz	ground_force_1_px	ground_force_1_py	ground_force_1_pz	ground_force_1_mx	ground_force_1_my	ground_force_1_mz	ground_force_2_vx	ground_force_2_vy	ground_force_2_vz	ground_force_2_px	ground_force_2_py	ground_force_2_pz	ground_force_2_mx	ground_force_2_my	ground_force_2_mz
0.641667	-3.05288	12.1948	-7.25154	1.40767	0	-0.1833	0	-4.47139	0	0	0	0	-0.000288212	0	0.000193032	0	0	0
0.65	-14.7095	38.5103	-16.1804	1.34891	0	-0.254325	0	-2.41163	0	0	0	0	-0.000288212	0	0.000193032	0	0	0
0.658333	-48.6859	110.966	-28.9041	1.34293	0	-0.274315	-0	0.479685	-0	0	0	0	-0.000288212	0	0.000193032	0	0	0
0.666667	-110.803	254.595	-43.9893	1.35228	0	-0.282008	-0	3.53209	-0	0	0	0	-0.000288212	0	0.000193032	0	0	0
0.675	-173.047	459.801	-57.4068	1.35313	0	-0.286808	-0	5.9197	-0	0	0	0	-0.000288212	0	0.000193032	0	0	0
0.683333	-191.599	694.448	-63.2742	1.33401	0	-0.291552	-0	6.90774	-0	0	0	0	-0.000288212	0	0.000193032	0	0	0
0.691667	-176.381	946.359	-56.2527	1.29921	0	-0.297137	-0	6.11353	-0	0	0	0	-0.000288212	0	0.000193032	0	0	0
0.7	-176.264	1199.45	-33.9678	1.26604	0	-0.30269	-0	3.677	-0	0	0	0	-0.000288212	0	0.000193032	0	0	0
0.708333	-203.239	1422.56	-0.301757	1.24136	0	-0.306872	-0	0.252014	-0	0	0	0	-0.000288212	0	0.000193032	0	0	0
0.716667	-233.053	1594.41	32.894	1.22001	0	-0.309582	0	-3.20934	0	0	0	0	-0.000288212	0	0.000193032	0	0	0
0.725	-235.899	1716.74	51.8557	1.19525	0	-0.311368	0	-5.81003	0	0	0	0	-0.000288212	0	0.000193032	0	0	0
0.733333	-205.47	1801.14	51.9613	1.16657	0	-0.312743	0	-7.03768	0	0	0	0	-0.000288212	0	0.000193032	0	0	0
0.741667	-159.567	1853.65	41.5218	1.13803	0	-0.313647	0	-6.90484	0	0	0	0	-0.000288212	0	0.000193032	0	0	0
0.75	-110.188	1877.03	32.8597	1.11088	0	-0.313559	0	-5.84718	0	0	0	0	-0.000288212	0	0.000193032	0	0	0
0.758333	-56.8032	1869.34	30.8761	1.0836	0	-0.312735	0	-4.47391	0	0	0	0	-0.000288212	0	0.000193032	0	0	0
0.766667	2.50093	1822.57	32.0607	1.05527	0	-0.312175	0	-3.32335	0	0	0	0	-0.000288212	0	0.000193032	0	0	0
0.775	65.4447	1731.26	32.4469	1.02594	0	-0.312446	0	-2.71727	0	0	0	0	-0.000288212	0	0.000193032	0	0	0
0.783333	125.062	1599.62	32.5616	0.995852	0	-0.313054	0	-2.71865	0	0	0	0	-0.000288212	0	0.000193032	0	0	0
0.791667	175.089	1437.92	34.2929	0.965357	0	-0.31319	0	-3.1632	0	0	0	0	-0.000288212	0	0.000193032	0	0	0
0.8	209.13	1251.54	36.2924	0.935743	0	-0.312863	0	-3.74632	0	0	0	0	-0.000288212	0	0.000193032	0	0	0
0.808333	224.232	1043.31	34.9792	0.907674	0	-0.312702	0	-4.1477	0	0	0	0	-0.000288212	0	0.000193032	0	0	0
0.816667	220.595	824.689	29.0939	0.88097	0	-0.312945	0	-4.15097	0	0	0	0	-0.000288212	0	0.000193032	0	0	0
0.825	199.479	614.89	21.2091	0.856308	0	-0.313051	0	-3.70578	0	0	0	0	-0.000288212	0	0.000193032	0	0	0
0.833333	166.07	430.556	14.6476	0.835154	0	-0.311693	0	-2.91194	0	0	0	0	-0.000288212	0	0.000193032	0	0	0
0.841667	127.406	279.832	10.2205	0.819776	0	-0.307632	0	-1.95311	0	0	0	0	-0.000288212	0	0.000193032	0	0	0
0.85	89.45	165.058	6.59067	0.811902	0	-0.300601	0	-1.0256	0	0	0	0	-0.000288212	0	0.000193032	0	0	0
0.858333	55.0436	85.8523	2.93863	0.813511	0	-0.290518	0	-0.288939	0	0	0	0	-0.000288212	0	0.000193032	0	0	0
0.866667	27.2153	38.6067	0.102438	0.827289	0	-0.272221	-0	0.161093	-0	0	0	0	-0.000288212	0	0.000193032	0	0	0
0.875	10.491	16.0506	-0.864614	0.845325	0	-0.218373	-0	0.303283	-0	0	0	0	-0.000288212	0	0.000193032	0	0	0
0.883333	0	0	0	-0.000288212	0	0.000193032	0	0	0	0	0	0	-0.000288212	0	0.000193032	0	0	0
0.891667	0	0	0	-0.000288212	0	0.000193032	0	0	0	0	0	0	-0.000288212	0	0.000193032	0	0	0
0.9	0	0	0	-0.000288212	0	0.000193032	0	0	0	0	0	0	-0.000288212	0	0.000193032	0	0	0
0.908333	0	0	0	-0.000288212	0	0.000193032	0	0	0	0	0	0	-0.000288212	0	0.000193032	0	0	0
0.916667	0	0	0	-0.000288212	0	0.000193032	0	0	0	0	0	0	-0.000288212	0	0.000193032	0	0	0
0.925	0	0	0	-0.000288212	0	0.000193032	0	0	0	0	0	0	-0.000288212	0	0.000193032	0	0	0
0.933333	0	0	0	-0.000288212	0	0.000193032	0	0	0	0	0	0	-0.000288212	0	0.000193032	0	0	0
0.941667	0	0	0	-0.000288212	0	0.000193032	0	0	0	0	0	0	-0.000288212	0	0.000193032	0	0	0
0.95	0	0	0	-0.000288212	0	0.000193032	0	0	0	0	0	0	-0.000288212	0	0.000193032	0	0	0
0.958333	0	0	0	-0.000288212	0	0.000193032	0	0	0	0	0	0	-0.000288212	0	0.000193032	0	0	0
0.966667	0	0	0	-0.000288212	0	0.000193032	0	0	0	0	0	0	-0.000288212	0	0.000193032	0	0	0
0.975	0	0	0	-0.000288212	0	0.000193032	0	0	0	0	0	0	-0.000288212	0	0.000193032	0	0	0
0.983333	0	0	0	-0.000288212	0	0.000193032	0	0	0	0	0	0	-0.000288212	0	0.000193032	0	0	0
0.991667	0	0	0	-0.000288212	0	0.000193032	0	0	0	0	0	0	-0.000288212	0	0.000193032	0	0	0
1	0	0	0	-0.000288212	0	0.000193032	0	0	0	-3.65012	22.2392	-1.62311	1.29205	0	-0.295471	-0	0.629654	-0
1.00833	0	0	0	-0.000288212	0	0.000193032	0	0	0	-17.5836	63.4487	-0.605291	1.30167	0	-0.353857	0	-1.15799	0
1.01667	0	0	0	-0.000288212	0	0.000193032	0	0	0	-50.4819	164.236	5.26475	1.31822	0	-0.367974	0	-3.34013	0
1.025	0	0	0	-0.000288212	0	0.000193032	0	0	0	-101.146	343.347	18.8418	1.3231	0	-0.365023	0	-5.41576	0
1.03333	0	0	0	-0.000288212	0	0.000193032	0	0	0	-145.904	575.774	37.5653	1.31379	0	-0.35771	0	-6.73462	0
1.04167	0	0	0	-0.000288212	0	0.000193032	0	0	0	-162.572	822.29	50.8073	1.28806	0	-0.351116	0	-6.69866	0
1.05	0	0	0	-0.000288212	0	0.000193032	0	0	0	-168.855	1066.08	47.3063	1.25372	0	-0.346958	0	-5.01581	0
1.05833	0	0	0	-0.000288212	0	0.000193032	0	0	0	-190.604	1295.05	26.5151	1.22406	0	-0.343927	0	-1.87492	0
1.06667	0	0	0	-0.000288212	0	0.000193032	0	0	0	-218.946	1499.24	-1.05433	1.20019	0	-0.340274	-0	2.07745	-0
1.075	0	0	0	-0.000288212	0	0.000193032	0	0	0	-225.347	1673.86	-24.3285	1.1748	0	-0.336514	-0	5.96288	-0
1.08333	0	0	0	-0.000288212	0	0.000193032	0	0	0	-197.535	1809.99	-38.7232	1.14504	0	-0.333832	-0	8.9822	-0
1.09167	0	0	0	-0.000288212	0	0.000193032	0	0	0	-151.318	1895.07	-44.3155	1.11462	0	-0.332556	-0	10.6667	-0
1.1	0	0	0	-0.000288212	0	0.000193032	0	0	0	-103.609	1925.85	-42.5512	1.08663	0	-0.332007	-0	10.982	-0
1.10833	0	0	0	-0.000288212	0	0.000193032	0	0	0	-51.6797	1910.8	-36.5033	1.05945	0	-0.331296	-0	10.2693	-0
1.11667	0	0	0	-0.000288212	0	0.000193032	0	0	0	9.13394	1856.86	-31.1275	1.03109	0	-0.330292	-0	9.06519	-0
1.125	0	0	0	-0.000288212	0	0.000193032	0	0	0	72.8891	1763.65	-30.3146	1.00224	0	-0.329168	-0	7.87986	-0
1.13333	0	0	0	-0.000288212	0	0.000193032	0	0	0	130.288	1629.78	-34.0602	0.973808	0	-0.327851	-0	7.02589	-0
1.14167	0	0	0	-0.000288212	0	0.000193032	0	0	0	176.45	1460.24	-39.4292	0.945337	0	-0.326092	-0	6.55782	-0
1.15	0	0	0	-0.000288212	0	0.000193032	0	0	0	209.915	1265.22	-43.6196	0.9165	0	-0.323791	-0	6.32099	-0
1.15833	0	0	0	-0.000288212	0	0.000193032	0	0	0	227.236	1054.58	-45.431	0.888167	0	-0.321235	-0	6.06216	-0
1.16667	0	0	0	-0.000288212	0	0.000193032	0	0	0	225.947	839.423	-44.5729	0.86138	0	-0.318901	-0	5.54633	-0
1.175	0	0	0	-0.000288212	0	0.000193032	0	0	0	205.41	633.844	-41.0016	0.837371	0	-0.31702	-0	4.64213	-0
1.18333	0	0	0	-0.000288212	0	0.000193032	0	0	0	169.646	451.321	-35.2308	0.817019	0	-0.315453	-0	3.3591	-0
1.19167	0	0	0	-0.000288212	0	0.000193032	0	0	0	128.563	300.844	-28.4618	0.80006	0	-0.313595	-0	1.83592	-0
1.2	0	0	0	-0.000288212	0	0.000193032	0	0	0	90.3905	185.633	-21.9172	0.787185	0	-0.310291	-0	0.291581	-0
1.20833	0	0	0	-0.000288212	0	0.000193032	0	0	0	57.4551	104.29	-16.1827	0.783295	0	-0.30318	0	-1.03942	0
1.21667	0	0	0	-0.000288212	0	0.000193032	0	0	0	30.7519	52.2818	-11.2243	0.798334	0	-0.287753	0	-1.96656	0
1.225	0	0	0	-0.000288212	0	0.000193032	0	0	0	12.9261	23.5001	-6.84174	0.846372	0	-0.251984	0	-2.38439	0
1.23333	0	0	0	-0.000288212	0	0.000193032	0	0	0	5.19949	10.8424	-3.08808	0.914085	0	-0.168575	0	-2.29083	0
1.24167	0	0	0	-0.000288212	0	0.000193032	0	0	0	0	0	0	-0.000288212	0	0.000193032	0	0	0
1.25	0	0	0	-0.000288212	0	0.000193032	0	0	0	0	0	0	-0.000288212	0	0.000193032	0	0	0
1.25833	0	0	0	-0.000288212	0	0.000193032	0	0	0	0	0	0	-0.000288212	0	0.000193032	0	0	0
1.26667	0	0	0	-0.000288212	0	0.000193032	0	0	0	0	0	0	-0.000288212	0	0.000193032	0	0	0
1.275	0	0	0	-0.000288212	0	0.000193032	0	0	0	0	0	0	-0.000288212	0	0.000193032	0	0	0
1.28333	0	0	0	-0.000288212	0	0.000193032	0	0	0	0	0	0	-0.000288212	0	0.000193032	0	0	0
1.29167	0	0	0	-0.000288212	0	0.000193032	0	0	0	0	0	0	-0.000288212	0	0.000193032	0	0	0
1.3	0	0	0	-0.000288212	0	0.000193032	0	0	0	0	0	0	-0.000288212	0	0.000193032	0	0	0
1.30833	0	0	0	-0.000288212	0	0.000193032	0	0	0	0	0	0	-0.000288212	0	0.000193032	0	0	0
1.31667	0	0	0	-0.000288212	0	0.000193032	0	0	0	0	0	0	-0.000288212	0	0.000193032	0	0	0
1.325	-1.56034	10.3674	-3.56918	1.21476	0	-0.12855	0	-2.25828	0	0	0	0	-0.000288212	0	0.000193032	0	0	0
1.33333	-8.2872	25.2199	-9.67059	1.28736	0	-0.233992	0	-1.28327	0	0	0	0	-0.000288212	0	0.000193032	0	0	0
1.34167	-26.9486	70.6995	-19.761	1.30844	0	-0.277407	-0	0.36152	-0	0	0	0	-0.000288212	0	0.000193032	0	0	0
1.35	-66.838	170.871	-32.4051	1.3138	0	-0.288819	-0	2.34759	-0	0	0	0	-0.000288212	0	0.000193032	0	0	0
1.35833	-117.101	325.73	-44.4609	1.31362	0	-0.29322	-0	4.17	-0	0	0	0	-0.000288212	0	0.000193032	0	0	0
1.36667	-141.277	506.953	-52.2754	1.29844	0	-0.297064	-0	5.28209	-0	0	0	0	-0.000288212	0	0.000193032	0	0	0
1.375	-128.279	704.405	-52.8401	1.26351	0	-0.301802	-0	5.26643	-0	0	0	0	-0.000288212	0	0.000193032	0	0	0
1.38333	-116.343	926.054	-43.7022	1.2242	0	-0.306865	-0	3.98692	-0	0	0	0	-0.000288212	0	0.000193032	0	0	0
1.39167	-132.583	1157.22	-23.7262	1.19497	0	-0.311084	-0	1.66694	-0	0	0	0	-0.000288212	0	0.000193032	0	0	0
1.4	-164.706	1366.35	3.7841	1.17318	0	-0.314365	0	-1.14944	0	0	0	0	-0.000288212	0	0.000193032	0	0	0
1.40833	-181.81	1533.41	30.1553	1.14992	0	-0.316918	0	-3.76417	0	0	0	0	-0.000288212	0	0.000193032	0	0	0
1.41667	-165.86	1658.51	46.2831	1.12143	0	-0.318758	0	-5.56915	0	0	0	0	-0.000288212	0	0.000193032	0	0	0
1.425	-125.079	1747.8	49.4116	1.09039	0	-0.320088	0	-6.25924	0	0	0	0	-0.000288212	0	0.000193032	0	0	0
1.43333	-71.7572	1805.13	44.5331	1.05956	0	-0.320775	0	-5.91111	0	0	0	0	-0.000288212	0	0.000193032	0	0	0
1.44167	-11.471	1830.81	38.8261	1.02934	0	-0.320633	0	-4.90097	0	0	0	0	-0.000288212	0	0.000193032	0	0	0
1.45	51.6296	1820.85	35.6486	0.999547	0	-0.32008	0	-3.72358	0	0	0	0	-0.000288212	0	0.000193032	0	0	0
1.45833	113.509	1769.2	34.2299	0.97023	0	-0.319781	0	-2.80867	0	0	0	0	-0.000288212	0	0.000193032	0	0	0
1.46667	169.676	1674.41	33.3653	0.941447	0	-0.319969	0	-2.40044	0	0	0	0	-0.000288212	0	0.000193032	0	0	0
1.475	217.651	1542.28	33.4339	0.912934	0	-0.320317	0	-2.51662	0	0	0	0	-0.000288212	0	0.000193032	0	0	0
1.48333	254.586	1378.34	34.7846	0.884409	0	-0.320474	0	-2.97849	0	0	0	0	-0.000288212	0	0.000193032	0	0	0
1.49167	275.888	1185.84	35.8064	0.855695	0	-0.320468	0	-3.4965	0	0	0	0	-0.000288212	0	0.000193032	0	0	0
1.5	277.639	973.325	33.9493	0.827268	0	-0.320544	0	-3.786	0	0	0	0	-0.000288212	0	0.000193032	0	0	0
1.50833	257.489	756.765	28.4691	0.800709	0	-0.320828	0	-3.67103	0	0	0	0	-0.000288212	0	0.000193032	0	0	0
1.51667	219.842	555.034	21.284	0.777292	0	-0.320864	0	-3.13443	0	0	0	0	-0.000288212	0	0.000193032	0	0	0
1.525	173.547	383.159	14.8877	0.757899	0	-0.319585	0	-2.30014	0	0	0	0	-0.000288212	0	0.000193032	0	0	0
1.53333	127.203	246.939	10.0443	0.743604	0	-0.315893	0	-1.3702	0	0	0	0	-0.000288212	0	0.000193032	0	0	0
1.54167	85.4946	144.948	5.98807	0.738033	0	-0.308859	0	-0.553459	0	0	0	0	-0.000288212	0	0.000193032	0	0	0
